<svg width="86" height="86" viewBox="0 0 86 86" fill="none" xmlns="http://www.w3.org/2000/svg">
<path d="M57.8258 54.561H42.9862C42.5165 54.561 42.0661 54.3744 41.734 54.0423C41.4019 53.7102 41.2153 53.2598 41.2153 52.7901C41.2153 52.3205 41.4019 51.87 41.734 51.538C42.0661 51.2059 42.5165 51.0193 42.9862 51.0193H57.8258C58.2954 51.0193 58.7458 51.2059 59.0779 51.538C59.41 51.87 59.5966 52.3205 59.5966 52.7901C59.5966 53.2598 59.41 53.7102 59.0779 54.0423C58.7458 54.3744 58.2954 54.561 57.8258 54.561Z" fill="#FF4343"/>
<path d="M67.8134 53.463C67.6038 53.5127 67.3855 53.5127 67.1759 53.463C66.9576 53.3843 66.7573 53.2627 66.5869 53.1053C66.4164 52.9479 66.2793 52.7579 66.1835 52.5466C66.0878 52.3353 66.0353 52.1069 66.0294 51.875C66.0234 51.6431 66.064 51.4123 66.1488 51.1963L74.5779 28.6713C74.7448 28.2364 75.0762 27.8848 75.5005 27.6925C75.9247 27.5003 76.4076 27.4829 76.8446 27.6443C77.2829 27.8189 77.6374 28.155 77.8351 28.5833C78.0328 29.0117 78.0586 29.4996 77.9071 29.9463L69.4779 52.3651C69.3352 52.6886 69.1023 52.9641 68.8071 53.1588C68.5119 53.3535 68.1669 53.4591 67.8134 53.463Z" fill="#FF4343"/>
<path d="M31.6529 54.1361C31.2834 54.1388 30.9227 54.0234 30.6233 53.8068C30.3239 53.5902 30.1015 53.2837 29.9883 52.932L18.8675 19.1444H8.24251C7.77286 19.1444 7.32244 18.9579 6.99034 18.6258C6.65825 18.2937 6.47168 17.8433 6.47168 17.3736C6.48075 16.9068 6.67023 16.4616 7.00038 16.1315C7.33053 15.8013 7.7757 15.6119 8.24251 15.6028H20.1425C20.5095 15.6106 20.8653 15.73 21.1627 15.9452C21.4601 16.1603 21.6848 16.4609 21.8071 16.807L33.4592 51.7986C33.5368 52.017 33.5699 52.2488 33.5565 52.4802C33.543 52.7116 33.4834 52.9379 33.3811 53.1459C33.2787 53.3539 33.1358 53.5393 32.9606 53.6911C32.7855 53.8429 32.5817 53.9581 32.3613 54.0299C32.1363 54.1186 31.894 54.1549 31.6529 54.1361Z" fill="#FF4343"/>
<path d="M37.1071 70.0735C35.0056 70.0735 32.9514 69.4504 31.2041 68.2829C29.4569 67.1154 28.095 65.456 27.2908 63.5145C26.4867 61.573 26.2762 59.4367 26.6862 57.3757C27.0962 55.3146 28.1081 53.4214 29.594 51.9355C31.08 50.4495 32.9732 49.4376 35.0342 49.0276C37.0953 48.6177 39.2316 48.8281 41.1731 49.6323C43.1145 50.4365 44.7739 51.7983 45.9414 53.5456C47.1089 55.2928 47.7321 57.3471 47.7321 59.4485C47.7321 62.2664 46.6126 64.9689 44.6201 66.9615C42.6275 68.9541 39.925 70.0735 37.1071 70.0735ZM37.1071 52.3652C35.7061 52.3652 34.3366 52.7806 33.1718 53.5589C32.0069 54.3372 31.099 55.4435 30.5629 56.7378C30.0268 58.0321 29.8865 59.4564 30.1598 60.8304C30.4331 62.2044 31.1078 63.4665 32.0984 64.4572C33.089 65.4478 34.3511 66.1224 35.7252 66.3957C37.0992 66.669 38.5234 66.5288 39.8177 65.9926C41.112 65.4565 42.2183 64.5486 42.9966 63.3838C43.775 62.2189 44.1904 60.8495 44.1904 59.4485C44.1904 57.5699 43.4441 55.7682 42.1157 54.4398C40.7874 53.1114 38.9857 52.3652 37.1071 52.3652Z" fill="#FF4343"/>
<path d="M63.7051 70.0735C61.6037 70.0735 59.5494 69.4504 57.8021 68.2829C56.0549 67.1154 54.693 65.456 53.8889 63.5145C53.0847 61.573 52.8743 59.4367 53.2842 57.3757C53.6942 55.3146 54.7061 53.4214 56.1921 51.9355C57.678 50.4495 59.5712 49.4376 61.6322 49.0276C63.6933 48.6177 65.8296 48.8281 67.7711 49.6323C69.7126 50.4365 71.372 51.7983 72.5394 53.5456C73.7069 55.2928 74.3301 57.3471 74.3301 59.4485C74.3301 62.2664 73.2107 64.9689 71.2181 66.9615C69.2255 68.9541 66.523 70.0735 63.7051 70.0735ZM63.7051 52.3652C62.3041 52.3652 60.9346 52.7806 59.7698 53.5589C58.6049 54.3372 57.6971 55.4435 57.1609 56.7378C56.6248 58.0321 56.4845 59.4564 56.7579 60.8304C57.0312 62.2044 57.7058 63.4665 58.6964 64.4572C59.687 65.4478 60.9492 66.1224 62.3232 66.3957C63.6972 66.669 65.1214 66.5288 66.4158 65.9926C67.7101 65.4565 68.8163 64.5486 69.5947 63.3838C70.373 62.2189 70.7884 60.8495 70.7884 59.4485C70.7884 57.5699 70.0421 55.7682 68.7138 54.4398C67.3854 53.1114 65.5837 52.3652 63.7051 52.3652Z" fill="#FF4343"/>
</svg>
