<svg width="86" height="85" viewBox="0 0 86 85" fill="none" xmlns="http://www.w3.org/2000/svg">
<path d="M42.4725 75.643C33.5491 75.643 24.9911 72.0982 18.6813 65.7883C12.3715 59.4785 8.82666 50.9206 8.82666 41.9972C8.82666 33.0737 12.3715 24.5158 18.6813 18.206C24.9911 11.8961 33.5491 8.35132 42.4725 8.35132C42.9421 8.35132 43.3926 8.53789 43.7247 8.86998C44.0568 9.20208 44.2433 9.6525 44.2433 10.1222C44.2433 10.5918 44.0568 11.0422 43.7247 11.3743C43.3926 11.7064 42.9421 11.893 42.4725 11.893C37.5059 11.8635 32.6091 13.0634 28.2187 15.3856C23.8283 17.7078 20.0807 21.0802 17.3099 25.2022C14.539 29.3242 12.8311 34.0677 12.3384 39.0099C11.8456 43.9521 12.5833 48.9394 14.4857 53.5274C16.3881 58.1153 19.3961 62.1613 23.2415 65.3046C27.087 68.448 31.6504 70.5911 36.5251 71.5429C41.3997 72.4946 46.4342 72.2255 51.1796 70.7596C55.925 69.2936 60.234 66.6763 63.7225 63.1409C63.88 62.9545 64.0742 62.8026 64.2932 62.6949C64.5121 62.5871 64.7509 62.5257 64.9947 62.5146C65.2384 62.5035 65.4818 62.5429 65.7097 62.6303C65.9375 62.7177 66.1448 62.8513 66.3185 63.0226C66.4923 63.1939 66.6288 63.3993 66.7194 63.6258C66.8101 63.8524 66.8529 64.0952 66.8452 64.3391C66.8376 64.583 66.7796 64.8227 66.675 65.0431C66.5703 65.2636 66.4212 65.46 66.2371 65.6201C63.1405 68.7858 59.444 71.3027 55.3637 73.0236C51.2833 74.7445 46.9009 75.635 42.4725 75.643Z" fill="#FF4343"/>
<path d="M41.4098 53.3304C41.1801 53.3378 40.9515 53.2976 40.7381 53.2122C40.5248 53.1269 40.3314 52.9983 40.1702 52.8346L26.0035 38.6679C25.8376 38.5033 25.7058 38.3075 25.6159 38.0917C25.526 37.8759 25.4797 37.6444 25.4797 37.4106C25.4797 37.1769 25.526 36.9454 25.6159 36.7296C25.7058 36.5138 25.8376 36.318 26.0035 36.1534C26.3405 35.8266 26.7915 35.6439 27.2608 35.6439C27.7302 35.6439 28.1811 35.8266 28.5181 36.1534L41.4098 49.0804L70.2744 20.2159C70.6078 19.8824 71.0601 19.6951 71.5317 19.6951C72.0033 19.6951 72.4555 19.8824 72.789 20.2159C73.1224 20.5493 73.3098 21.0016 73.3098 21.4731C73.3098 21.9447 73.1224 22.397 72.789 22.7304L42.6848 52.8346C42.5158 52.9977 42.316 53.1255 42.0971 53.2106C41.8782 53.2957 41.6446 53.3365 41.4098 53.3304Z" fill="#FF4343"/>
</svg>
