<svg width="86" height="85" viewBox="0 0 86 85" fill="none" xmlns="http://www.w3.org/2000/svg">
<path d="M65.3956 60.8742H19.8497C16.3367 60.8742 12.9676 59.4787 10.4835 56.9946C7.99944 54.5105 6.60391 51.1414 6.60391 47.6284V22.8367C6.5852 21.0837 6.91375 19.3443 7.57059 17.7189C8.22744 16.0935 9.1996 14.6142 10.431 13.3663C11.6624 12.1185 13.1286 11.1268 14.7452 10.4484C16.3618 9.77001 18.0966 9.41839 19.8497 9.41382H65.3956C68.9057 9.42317 72.2694 10.8217 74.7515 13.3038C77.2335 15.7858 78.6321 19.1495 78.6414 22.6597V47.6284C78.6414 49.3679 78.2988 51.0903 77.6331 52.6974C76.9675 54.3044 75.9918 55.7646 74.7618 56.9946C73.5318 58.2246 72.0716 59.2003 70.4645 59.866C68.8575 60.5316 67.1351 60.8742 65.3956 60.8742ZM19.8497 12.9555C17.276 12.9555 14.8077 13.9779 12.9879 15.7978C11.168 17.6177 10.1456 20.0859 10.1456 22.6597V47.6284C10.1456 50.2021 11.168 52.6704 12.9879 54.4903C14.8077 56.3102 17.276 57.3326 19.8497 57.3326H65.3956C67.9693 57.3326 70.4376 56.3102 72.2575 54.4903C74.0773 52.6704 75.0998 50.2021 75.0998 47.6284V22.8367C75.1233 21.5475 74.8897 20.2666 74.4125 19.0687C73.9354 17.8708 73.2243 16.78 72.3208 15.8601C71.4174 14.9401 70.3396 14.2095 69.1506 13.7107C67.9615 13.212 66.685 12.9553 65.3956 12.9555H19.8497Z" fill="#FF4343"/>
<path d="M76.8698 47.4159H8.37398C7.90717 47.4069 7.462 47.2174 7.13185 46.8872C6.8017 46.5571 6.61222 46.1119 6.60315 45.6451C6.60315 45.1754 6.78972 44.725 7.12181 44.3929C7.45391 44.0608 7.90433 43.8743 8.37398 43.8743H76.8698C77.3395 43.8743 77.7899 44.0608 78.122 44.3929C78.4541 44.725 78.6407 45.1754 78.6407 45.6451C78.6407 46.1148 78.4541 46.5652 78.122 46.8973C77.7899 47.2294 77.3395 47.4159 76.8698 47.4159Z" fill="#FF4343"/>
<path d="M42.5752 74.5804C42.1055 74.5804 41.6551 74.3939 41.323 74.0618C40.9909 73.7297 40.8043 73.2793 40.8043 72.8096V59.1034C40.8043 58.6337 40.9909 58.1833 41.323 57.8512C41.6551 57.5191 42.1055 57.3325 42.5752 57.3325C43.0448 57.3325 43.4952 57.5191 43.8273 57.8512C44.1594 58.1833 44.346 58.6337 44.346 59.1034V72.8096C44.346 73.2793 44.1594 73.7297 43.8273 74.0618C43.4952 74.3939 43.0448 74.5804 42.5752 74.5804Z" fill="#FF4343"/>
<path d="M63.0373 74.5805H21.9539C21.4843 74.5805 21.0339 74.3939 20.7018 74.0618C20.3697 73.7297 20.1831 73.2793 20.1831 72.8097C20.1831 72.34 20.3697 71.8896 20.7018 71.5575C21.0339 71.2254 21.4843 71.0388 21.9539 71.0388H63.0373C63.5069 71.0388 63.9573 71.2254 64.2894 71.5575C64.6215 71.8896 64.8081 72.34 64.8081 72.8097C64.8081 73.2793 64.6215 73.7297 64.2894 74.0618C63.9573 74.3939 63.5069 74.5805 63.0373 74.5805Z" fill="#FF4343"/>
</svg>
