<svg width="86" height="84" viewBox="0 0 86 84" fill="none" xmlns="http://www.w3.org/2000/svg">
<path d="M54.2778 73.9984H22.6862C19.7147 73.9892 16.8681 72.8166 14.7703 70.7376C12.6725 68.6587 11.4945 65.843 11.4945 62.9075V31.804C11.5038 28.8746 12.686 26.0678 14.7828 23.9964C16.8796 21.9251 19.7208 20.7573 22.6862 20.748H32.1424C32.6121 20.748 33.0625 20.9324 33.3946 21.2604C33.7267 21.5885 33.9133 22.0334 33.9133 22.4974C33.9133 22.9614 33.7267 23.4063 33.3946 23.7344C33.0625 24.0625 32.6121 24.2468 32.1424 24.2468H22.6862C20.6601 24.256 18.7197 25.0551 17.2871 26.4704C15.8545 27.8856 15.0455 29.8025 15.0362 31.804V62.9075C15.0362 64.9151 15.841 66.8409 17.2746 68.2637C18.7083 69.6865 20.654 70.4905 22.6862 70.4997H54.2778C55.2871 70.4997 56.2865 70.3033 57.2189 69.9218C58.1514 69.5403 58.9986 68.981 59.7122 68.276C60.4259 67.571 60.992 66.7341 61.3782 65.8129C61.7645 64.8918 61.9633 63.9045 61.9633 62.9075V56.6798C61.9633 56.2159 62.1498 55.7709 62.4819 55.4428C62.814 55.1148 63.2644 54.9305 63.7341 54.9305C64.2037 54.9305 64.6542 55.1148 64.9863 55.4428C65.3183 55.7709 65.5049 56.2159 65.5049 56.6798V62.9075C65.5049 65.849 64.3221 68.67 62.2166 70.75C60.1111 72.8299 57.2554 73.9984 54.2778 73.9984Z" fill="#FF4343"/>
<path d="M63.5925 33.0635C63.1348 33.0639 62.6948 32.8892 62.3647 32.5761C62.0346 32.263 61.8399 31.8358 61.8216 31.3841C61.7511 30.0877 61.3358 28.8327 60.6175 27.7455C60.0393 26.8423 59.2651 26.0775 58.3508 25.5063C57.2874 24.8277 56.0709 24.419 54.8091 24.3167C54.5765 24.3077 54.348 24.2535 54.1366 24.1572C53.9253 24.0608 53.7352 23.9242 53.5773 23.7553C53.4194 23.5863 53.2968 23.3882 53.2164 23.1724C53.1361 22.9565 53.0996 22.7272 53.1091 22.4974C53.0991 22.0543 53.2632 21.6247 53.567 21.2985C53.8707 20.9723 54.2905 20.7751 54.7383 20.748C56.7048 20.8346 58.6122 21.4385 60.2633 22.4974C61.608 23.3339 62.7457 24.4578 63.5925 25.7862C64.6643 27.4172 65.2757 29.3015 65.3633 31.2442C65.3728 31.4739 65.3363 31.7033 65.256 31.9192C65.1757 32.135 65.0531 32.3331 64.8952 32.502C64.7373 32.671 64.5472 32.8076 64.3358 32.9039C64.1244 33.0003 63.8959 33.0545 63.6633 33.0635H63.5925Z" fill="#FF4343"/>
<path d="M47.1944 49.1224H38.4465C37.9769 49.1224 37.5265 48.9381 37.1944 48.61C36.8623 48.282 36.6757 47.837 36.6757 47.3731V38.5563C36.6729 38.0998 36.8509 37.6604 37.1715 37.3318L54.8799 19.8382C55.2109 19.5177 55.6559 19.3381 56.1194 19.3381C56.583 19.3381 57.028 19.5177 57.359 19.8382L60.4403 22.8821C60.7647 23.2091 60.9465 23.6487 60.9465 24.1066C60.9465 24.5645 60.7647 25.0042 60.4403 25.3312C60.2757 25.4951 60.0798 25.6253 59.864 25.7141C59.6482 25.8029 59.4168 25.8486 59.183 25.8486C58.9492 25.8486 58.7178 25.8029 58.502 25.7141C58.2862 25.6253 58.0903 25.4951 57.9257 25.3312L56.1194 23.5818L40.1111 39.291V45.6237H46.5215L62.5653 29.7396L60.759 27.9552C60.4346 27.6282 60.2528 27.1886 60.2528 26.7307C60.2528 26.2728 60.4346 25.8331 60.759 25.5061C60.9237 25.3421 61.1195 25.212 61.3353 25.1232C61.5511 25.0344 61.7826 24.9887 62.0163 24.9887C62.2501 24.9887 62.4816 25.0344 62.6973 25.1232C62.9131 25.212 63.109 25.3421 63.2736 25.5061L66.3194 28.515C66.4854 28.6776 66.6172 28.8711 66.7071 29.0843C66.797 29.2975 66.8433 29.5261 66.8433 29.757C66.8433 29.988 66.797 30.2166 66.7071 30.4298C66.6172 30.643 66.4854 30.8365 66.3194 30.9991L48.6111 48.4926C48.4342 48.6914 48.2162 48.8505 47.9718 48.9591C47.7275 49.0677 47.4624 49.1234 47.1944 49.1224Z" fill="#FF4343"/>
<path d="M65.1861 31.489C64.7132 31.4935 64.2567 31.3181 63.9111 30.9992L60.8653 27.9553C60.5408 27.6283 60.3591 27.1886 60.3591 26.7307C60.3591 26.2728 60.5408 25.8332 60.8653 25.5062C61.0299 25.3422 61.2258 25.2121 61.4416 25.1233C61.6574 25.0344 61.8888 24.9887 62.1226 24.9887C62.3564 24.9887 62.5878 25.0344 62.8036 25.1233C63.0194 25.2121 63.2153 25.3422 63.3799 25.5062L65.1861 27.2905L71.5611 20.9579L65.1861 14.6602L58.7757 20.9579L60.582 22.7422C60.9064 23.0692 61.0882 23.5088 61.0882 23.9667C61.0882 24.4246 60.9064 24.8643 60.582 25.1913C60.4173 25.3553 60.2215 25.4854 60.0057 25.5742C59.7899 25.663 59.5584 25.7088 59.3247 25.7088C59.0909 25.7088 58.8594 25.663 58.6436 25.5742C58.4279 25.4854 58.232 25.3553 58.0674 25.1913L55.0215 22.1824C54.8514 22.0262 54.7163 21.8366 54.6248 21.6257C54.5333 21.4148 54.4875 21.1873 54.4903 20.9579C54.4868 20.7232 54.5322 20.4903 54.6236 20.2736C54.715 20.057 54.8504 19.8612 55.0215 19.6983L63.9111 10.9515C64.0757 10.7876 64.2716 10.6574 64.4874 10.5686C64.7032 10.4798 64.9347 10.4341 65.1684 10.4341C65.4022 10.4341 65.6336 10.4798 65.8494 10.5686C66.0652 10.6574 66.2611 10.7876 66.4257 10.9515L75.3153 19.6983C75.642 20.0312 75.8247 20.4767 75.8247 20.9404C75.8247 21.404 75.642 21.8495 75.3153 22.1824L66.4257 30.9992C66.093 31.3159 65.6482 31.4917 65.1861 31.489Z" fill="#FF4343"/>
</svg>
