<svg width="86" height="85" viewBox="0 0 86 85" fill="none" xmlns="http://www.w3.org/2000/svg">
<path d="M57.3018 57.1909C57.0088 57.1942 56.7194 57.1248 56.4598 56.9888C56.2002 56.8528 55.9784 56.6545 55.8143 56.4117C55.6835 56.215 55.5934 55.994 55.5492 55.7619C55.5051 55.5298 55.5079 55.2912 55.5574 55.0601C55.6069 54.8291 55.7021 54.6103 55.8375 54.4167C55.9729 54.223 56.1456 54.0584 56.3456 53.9325C60.9015 51.0022 64.3859 46.6753 66.2775 41.5994C68.1691 36.5235 68.366 30.9715 66.8389 25.7743C65.3118 20.577 62.1427 16.0141 57.806 12.7683C53.4692 9.52244 48.1979 7.76827 42.781 7.76827C37.3641 7.76827 32.0928 9.52244 27.756 12.7683C23.4192 16.0141 20.2501 20.577 18.723 25.7743C17.1959 30.9715 17.3929 36.5235 19.2845 41.5994C21.176 46.6753 24.6605 51.0022 29.2164 53.9325C29.4252 54.0517 29.6076 54.2121 29.7525 54.404C29.8973 54.5959 30.0015 54.8153 30.0588 55.0489C30.1161 55.2824 30.1252 55.5251 30.0856 55.7623C30.046 55.9994 29.9586 56.226 29.8286 56.4283C29.6985 56.6306 29.5287 56.8042 29.3294 56.9387C29.13 57.0732 28.9054 57.1656 28.6692 57.2105C28.433 57.2553 28.1901 57.2516 27.9554 57.1995C27.7206 57.1474 27.499 57.0481 27.3039 56.9075C22.1037 53.5639 18.1263 48.626 15.9668 42.8331C13.8073 37.0401 13.582 30.7036 15.3244 24.7718C17.0669 18.8401 20.6835 13.6322 25.633 9.92752C30.5825 6.22286 36.5986 4.2207 42.781 4.2207C48.9634 4.2207 54.9795 6.22286 59.9289 9.92752C64.8784 13.6322 68.495 18.8401 70.2375 24.7718C71.98 30.7036 71.7546 37.0401 69.5951 42.8331C67.4357 48.626 63.4582 53.5639 58.2581 56.9075C57.9758 57.0975 57.642 57.1964 57.3018 57.1909Z" fill="#FF4343"/>
<path d="M57.3018 71.1804H28.2601C27.7933 71.1714 27.3481 70.9819 27.018 70.6517C26.6878 70.3216 26.4983 69.8764 26.4893 69.4096V55.42C26.4983 54.9532 26.6878 54.508 27.018 54.1779C27.3481 53.8477 27.7933 53.6582 28.2601 53.6492C28.7297 53.6492 29.1802 53.8357 29.5123 54.1678C29.8444 54.4999 30.0309 54.9503 30.0309 55.42V67.6388H55.5309V55.42C55.5309 54.9503 55.7175 54.4999 56.0496 54.1678C56.3817 53.8357 56.8321 53.6492 57.3018 53.6492C57.7686 53.6582 58.2137 53.8477 58.5439 54.1779C58.874 54.508 59.0635 54.9532 59.0726 55.42V69.4096C59.0635 69.8764 58.874 70.3216 58.5439 70.6517C58.2137 70.9819 57.7686 71.1714 57.3018 71.1804Z" fill="#FF4343"/>
<path d="M33.5018 79.8221C33.0321 79.8221 32.5817 79.6355 32.2496 79.3034C31.9175 78.9714 31.731 78.5209 31.731 78.0513V71.818C31.74 71.3511 31.9295 70.906 32.2597 70.5758C32.5898 70.2457 33.035 70.0562 33.5018 70.0471C33.9714 70.0471 34.4219 70.2337 34.7539 70.5658C35.086 70.8979 35.2726 71.3483 35.2726 71.818V78.0513C35.2726 78.5209 35.086 78.9714 34.7539 79.3034C34.4219 79.6355 33.9714 79.8221 33.5018 79.8221Z" fill="#FF4343"/>
<path d="M52.0601 79.8221C51.5905 79.8221 51.1401 79.6355 50.808 79.3034C50.4759 78.9714 50.2893 78.5209 50.2893 78.0513V71.818C50.2893 71.3483 50.4759 70.8979 50.808 70.5658C51.1401 70.2337 51.5905 70.0471 52.0601 70.0471C52.527 70.0562 52.9721 70.2457 53.3023 70.5758C53.6324 70.906 53.8219 71.3511 53.831 71.818V78.0513C53.831 78.5209 53.6444 78.9714 53.3123 79.3034C52.9802 79.6355 52.5298 79.8221 52.0601 79.8221Z" fill="#FF4343"/>
<path d="M42.7808 71.1804C42.3112 71.1804 41.8608 70.9938 41.5287 70.6617C41.1966 70.3296 41.01 69.8792 41.01 69.4096V41.0763C41.01 40.6066 41.1966 40.1562 41.5287 39.8241C41.8608 39.492 42.3112 39.3054 42.7808 39.3054C43.2505 39.3054 43.7009 39.492 44.033 39.8241C44.3651 40.1562 44.5517 40.6066 44.5517 41.0763V69.4096C44.5517 69.8792 44.3651 70.3296 44.033 70.6617C43.7009 70.9938 43.2505 71.1804 42.7808 71.1804Z" fill="#FF4343"/>
</svg>
